<?xml version="1.0" encoding="UTF-8" standalone="no"?>
<!-- Created with Inkscape (http://www.inkscape.org/) -->

<svg
   xmlns:dc="http://purl.org/dc/elements/1.1/"
   xmlns:cc="http://creativecommons.org/ns#"
   xmlns:rdf="http://www.w3.org/1999/02/22-rdf-syntax-ns#"
   xmlns:svg="http://www.w3.org/2000/svg"
   xmlns="http://www.w3.org/2000/svg"
   xmlns:sodipodi="http://sodipodi.sourceforge.net/DTD/sodipodi-0.dtd"
   xmlns:inkscape="http://www.inkscape.org/namespaces/inkscape"
   sodipodi:docname="bg.svg"
   inkscape:version="0.92.4 5da689c313, 2019-01-14"
   id="svg8"
   version="1.1"
   viewBox="0 0 101.33541 76.199998"
   height="288"
   width="383">
  <defs
     id="defs2" />
  <sodipodi:namedview
     id="base"
     pagecolor="#ffffff"
     bordercolor="#666666"
     borderopacity="1.0"
     inkscape:pageopacity="0.0"
     inkscape:pageshadow="2"
     inkscape:zoom="2.0000001"
     inkscape:cx="176.6396"
     inkscape:cy="135.86759"
     inkscape:document-units="mm"
     inkscape:current-layer="layer1"
     showgrid="false"
     inkscape:snap-global="false"
     inkscape:window-width="1770"
     inkscape:window-height="1063"
     inkscape:window-x="150"
     inkscape:window-y="0"
     inkscape:window-maximized="1"
     fit-margin-top="32"
     fit-margin-left="32"
     fit-margin-right="32"
     fit-margin-bottom="32"
     units="px"
     inkscape:snap-page="true" />
  <metadata
     id="metadata5">
    <rdf:RDF>
      <cc:Work
         rdf:about="">
        <dc:format>image/svg+xml</dc:format>
        <dc:type
           rdf:resource="http://purl.org/dc/dcmitype/StillImage" />
        <dc:title />
      </cc:Work>
    </rdf:RDF>
  </metadata>
  <g
     inkscape:label="Layer 1"
     inkscape:groupmode="layer"
     id="layer1"
     transform="translate(-32.452469,-149.49697)">
    <path
       sodipodi:nodetypes="ccccc"
       style="opacity:1;fill:#383d38;fill-opacity:1;stroke:none;stroke-width:1.6621846;stroke-linecap:round;stroke-linejoin:round;stroke-miterlimit:4;stroke-dasharray:none;stroke-dashoffset:36.56099701;stroke-opacity:1"
       d="m 32,147.05516 h 104 v 79 H 32 Z"
       id="rect928"
       inkscape:connector-curvature="0" />
    <g
       id="g2891">
      <path
         sodipodi:nodetypes="sccccccsszccz"
         inkscape:connector-curvature="0"
         id="path815"
         d="m 87.722342,158.03672 c -5.277025,-0.0363 -10.885901,1.41296 -14.082345,4.83536 4.673944,7.77852 11.795617,10.54232 17.105415,10.95799 5.309796,0.41566 7.361074,-1.25317 9.354468,-2.40502 2.39429,0.5854 3.80318,3.47164 4.14239,6.54792 0.74009,-0.53185 0.86106,-0.10306 1.73736,-1.33636 -1.12821,-4.3069 -2.83023,-5.43793 -4.00906,-8.15195 0,0 1.86914,-2.92538 -2.939876,-7.2161 -2.254226,-2.01127 -6.652157,-3.19983 -11.308352,-3.23184 z m 5.69578,2.2964 c 5.416844,1.51404 6.705188,5.88016 6.280748,7.75104 -6.839924,-3.69632 -14.492144,-5.65128 -22.71809,-5.87994 6.441752,-2.74956 11.020498,-3.38515 16.437342,-1.8711 z"
         style="opacity:1;fill:#455048;fill-opacity:1;stroke:none;stroke-width:0.40000001;stroke-linecap:round;stroke-linejoin:round;stroke-miterlimit:4;stroke-dasharray:none;stroke-dashoffset:36.56099701;stroke-opacity:1" />
      <path
         sodipodi:nodetypes="ccccsccccccc"
         inkscape:connector-curvature="0"
         id="path817"
         d="m 124.42139,200.02278 c -0.74067,0.80182 -2.01894,1.89006 -2.93987,2.93988 -1.32183,-0.68743 -3.01491,-1.48831 -5.47925,0.13384 -2.46435,1.62215 -5.26558,7.80088 -3.34088,11.35899 3.92922,1.28633 9.93389,-1.08247 11.49284,-3.87573 1.55895,-2.79326 -1.00053,-5.74432 -1.33636,-6.94893 0.46598,-1.47188 1.60342,-2.12114 2.53887,-2.40554 -0.66818,-0.68532 -0.59559,-0.53433 -0.93535,-1.20251 z m -8.01832,3.74189 c 1.7222,-0.40771 3.92307,-0.67575 4.94461,0.66818 -0.95138,0.32433 -1.67605,1.10206 -2.2717,2.13785 -0.89097,-0.93534 -1.78194,-1.87068 -2.67291,-2.80603 z"
         style="opacity:1;fill:#455048;fill-opacity:1;stroke:none;stroke-width:0.40000001;stroke-linecap:round;stroke-linejoin:round;stroke-miterlimit:4;stroke-dasharray:none;stroke-dashoffset:36.56099701;stroke-opacity:1" />
      <path
         sodipodi:nodetypes="cccscscccccc"
         inkscape:connector-curvature="0"
         id="path822"
         d="M 75.931402,201.38933 74.59505,202.458 c 0.53454,0.66817 1.06898,1.33636 1.60352,2.00453 0,0 -1.937991,3.53846 -0.267168,6.68176 1.670825,3.14331 12.962517,6.01359 12.962517,6.01359 0,0 -0.59286,-10.6437 -3.207039,-12.96252 -2.614178,-2.31881 -8.686292,-0.8015 -8.686292,-0.8015 -0.356359,-1.07217 -0.84646,-1.18662 -1.069186,-2.00453 z m 1.60352,9.62164 c 3.991306,1.43974 6.178831,1.52879 7.082772,1.06918 0.411871,1.36994 1.256801,2.30681 2.004528,3.34088 -3.431598,-1.06752 -6.365721,-2.63252 -9.0873,-4.41006 z"
         style="opacity:1;fill:#455048;fill-opacity:1;stroke:none;stroke-width:0.40000001;stroke-linecap:round;stroke-linejoin:round;stroke-miterlimit:4;stroke-dasharray:none;stroke-dashoffset:36.56099701;stroke-opacity:1" />
      <path
         style="display:inline;opacity:1;fill:#455048;fill-opacity:1;stroke:none;stroke-width:0.40000001;stroke-linecap:round;stroke-linejoin:round;stroke-miterlimit:4;stroke-dasharray:none;stroke-dashoffset:36.56099701;stroke-opacity:1"
         d="m 43.621786,181.32921 c -0.07071,-0.002 -0.142284,-8e-4 -0.214457,0.004 -0.524902,0.0388 -1.084142,0.29351 -1.616439,0.89245 -1.287023,1.44812 -1.015696,2.6691 -0.347782,3.21634 l 0.342615,0.66869 0.02119,0.38086 -0.408761,1.32188 0.136426,1.35444 0.09353,0.53124 0.02119,0.9312 0.306958,0.74053 0.01395,0.78083 0.473873,0.44958 0.116272,1.20665 0.895036,0.42529 0.551904,0.96946 0.895036,0.27698 0.648022,0.74828 0.554488,0.19895 c 0.937017,0.33672 1.99033,0.49437 2.991689,1.03801 0.447244,0.24281 1.535587,0.60298 2.241186,0.59765 0.47128,-0.004 2.058589,-0.46732 2.238951,-0.60343 0.465066,-0.35098 0.327461,-0.40691 0.822759,-0.63122 l 0.417545,-0.21549 0.575676,-0.0641 0.430981,-0.5178 0.630969,-0.45992 0.714685,-0.26355 0.380856,-0.73846 0.72347,-0.32194 0.145727,-0.76326 0.632005,-0.69505 0.07596,-0.9741 0.331248,-0.8661 c 0.164134,-1.06427 0.412581,-2.00091 0.325043,-2.8298 l -0.144176,-1.36322 -0.424262,-0.98909 -0.27027,-0.66146 0.283705,-0.74 c 0.20461,-0.53426 0.300141,-1.16667 -0.486276,-1.94666 -1.534949,-1.85919 -2.726374,-0.61554 -3.47679,0.0631 -1.342679,-0.92274 -3.223116,-1.06949 -5.009514,-0.70952 -2.17242,-0.35576 -3.515032,0.29259 -4.543392,1.0604 -0.152257,-0.58733 -1.029708,-1.46565 -2.090311,-1.50275 z m 7.260539,0.6103 1.262972,0.0232 -1.029394,0.46768 0.818554,-0.0935 -0.631486,0.46767 0.374137,0.0935 -0.09353,0.25735 -0.163297,0.18706 -0.350883,-0.23409 -0.374138,-0.1633 0.116789,-0.42116 -0.374137,-0.35088 z m 6.761861,0.0594 v 0.52917 l 0.898653,0.13488 0.264584,0.92604 -0.529167,1.28984 -0.859896,-0.13229 -0.03307,-0.66146 -0.661458,-0.13229 0.132291,-0.62839 -1.027844,-0.28266 0.79065,-1.00976 z m -15.069881,0.047 h 1.422135 l 1.019576,0.50746 0.40101,1.04283 -1.095541,0.78652 0.264584,0.42995 -0.79375,0.0992 0.363802,0.52917 -0.628386,0.59531 0.231511,0.42995 -0.496094,0.52917 0.165364,0.42995 -0.562239,0.56224 -0.56224,-0.66146 0.661459,-0.52917 -0.463021,-0.66146 0.562239,-0.23151 -0.297656,-0.76068 -1.223698,-0.69453 0.727604,-0.3638 -0.562239,-0.95911 1.064017,-0.25322 z m 11.604459,1.99833 0.865581,0.74827 0.165364,0.6103 -0.374137,0.37362 0.535885,0.48938 -0.584461,0.0935 -0.888835,-0.58498 -0.65474,-1.11414 z m -5.058089,0.2806 0.498678,1.02681 -1.107943,0.42271 -0.609265,-0.24132 -0.387573,-0.90641 z m 3.072681,0.62012 c 0.526835,0.0195 0.974684,0.29871 0.937411,0.30799 l -0.06718,0.46767 c 0,0 -0.496693,-0.49476 -0.801501,0 -0.304811,0.49476 0.401009,0.73536 0.401009,0.73536 l -0.468189,0.2005 -0.609265,-0.26355 c 0,0 0.555226,-0.18935 0.205156,-0.66817 -0.350071,-0.47877 -0.932243,-0.004 -0.932243,-0.004 l -0.267167,-0.26717 c 0,0 0.754126,-0.42419 1.372526,-0.49919 0.0773,-0.009 0.154182,-0.0124 0.229443,-0.009 z m -0.01964,2.24689 1.785937,0.92604 0.143144,0.81364 0.0832,0.60694 -0.26665,1.54461 -0.397909,5.34386 -1.737362,0.60151 -1.603519,-0.40101 -0.935344,-0.401 -0.126089,-0.28371 -0.564306,0.5116 -0.751375,-0.46922 -0.686263,0.46508 -0.417029,-0.86144 -1.009757,0.008 -0.445968,-0.53692 -0.962732,-0.33073 -0.377755,-0.96531 -1.017509,-0.43408 0.301791,-1.2175 -0.561206,-0.23409 v -0.86507 l -0.421163,-0.44442 0.304374,-0.72501 0.724504,-0.047 -0.04651,0.46767 0.490926,-0.30386 0.421163,0.16382 1.122412,-0.98237 1.052649,-0.0935 -0.09353,0.91209 1.473295,-0.35036 -0.72502,1.16892 0.794784,0.18707 -0.250631,1.13481 0.551388,0.78135 0.456302,-0.9772 -0.125573,-0.70952 0.551387,-1.52394 0.409277,-0.32711 0.475424,-1.35909 z m 3.331579,4.13566 0.427881,0.80254 0.427881,-0.58859 0.362769,0.9958 0.208255,2.13527 -0.994771,0.30231 -0.32091,0.64182 -0.427881,-0.1602 -0.534851,0.53485 -0.641822,-0.37465 0.638204,-3.70055 0.481108,0.42788 z"
         id="path5185"
         inkscape:connector-curvature="0"
         sodipodi:nodetypes="cccccccccccccccccccssscccccccccccccccccccccccccccccccccccccccccccccccccccccccccccccccccccccccccccccccccccccccccccccccccccccccccccccccccccccccccccccccccccccccccccccccccccccccccc" />
      <path
         sodipodi:nodetypes="ccccccc"
         inkscape:connector-curvature="0"
         id="path1908"
         d="m 50.010027,196.12351 -0.125603,-0.57386 0.05344,-0.65752 0.275346,0.65331 0.359062,0.61114 -0.251491,0.15648 z"
         style="opacity:1;fill:#455048;fill-opacity:1;fill-rule:evenodd;stroke:none;stroke-width:2;stroke-linecap:round;stroke-linejoin:round;stroke-miterlimit:4;stroke-dasharray:none;stroke-dashoffset:36.56099701;stroke-opacity:1" />
      <path
         sodipodi:nodetypes="ccccccc"
         inkscape:connector-curvature="0"
         id="path1910"
         d="m 52.556642,196.05736 0.417939,-0.63143 0.401542,-0.78136 -0.03574,0.80836 -0.19611,0.54029 -0.26937,0.20252 z"
         style="opacity:1;fill:#455048;fill-opacity:1;fill-rule:evenodd;stroke:none;stroke-width:2;stroke-linecap:round;stroke-linejoin:round;stroke-miterlimit:4;stroke-dasharray:none;stroke-dashoffset:36.56099701;stroke-opacity:1" />
      <path
         sodipodi:nodetypes="cccccc"
         inkscape:connector-curvature="0"
         id="path1904"
         d="m 50.026077,188.5541 0.56224,1.98438 0.252917,-0.15685 0.07781,-1.95982 -0.546236,-0.0991 z"
         style="opacity:1;fill:#455048;fill-opacity:1;fill-rule:evenodd;stroke:none;stroke-width:2;stroke-linecap:round;stroke-linejoin:round;stroke-miterlimit:4;stroke-dasharray:none;stroke-dashoffset:36.56099701;stroke-opacity:1" />
      <path
         sodipodi:nodetypes="ccccc"
         inkscape:connector-curvature="0"
         id="path1906"
         d="m 52.895396,188.50968 0.132292,1.85209 0.595312,-1.55443 -0.25058,-0.32801 z"
         style="opacity:1;fill:#455048;fill-opacity:1;fill-rule:evenodd;stroke:none;stroke-width:2;stroke-linecap:round;stroke-linejoin:round;stroke-miterlimit:4;stroke-dasharray:none;stroke-dashoffset:36.56099701;stroke-opacity:1" />
      <path
         inkscape:connector-curvature="0"
         id="path2876"
         d="m 51.022911,188.40726 0.06615,0.26458 0.347266,-0.0992 v -0.26458 z"
         style="opacity:1;fill:#455048;fill-opacity:1;fill-rule:evenodd;stroke:none;stroke-width:2;stroke-linecap:round;stroke-linejoin:round;stroke-miterlimit:4;stroke-dasharray:none;stroke-dashoffset:36.56099701;stroke-opacity:1" />
      <path
         inkscape:connector-curvature="0"
         id="path2878"
         d="m 52.319536,188.44004 -0.02147,0.1482 0.388244,0.084 -0.02655,-0.16069 z"
         style="opacity:1;fill:#455048;fill-opacity:1;fill-rule:evenodd;stroke:none;stroke-width:2;stroke-linecap:round;stroke-linejoin:round;stroke-miterlimit:4;stroke-dasharray:none;stroke-dashoffset:36.56099701;stroke-opacity:1" />
    </g>
  </g>
</svg>
