<?xml version="1.0" encoding="UTF-8" standalone="no"?>
<!-- Created with Inkscape (http://www.inkscape.org/) -->

<svg
   xmlns:dc="http://purl.org/dc/elements/1.1/"
   xmlns:cc="http://creativecommons.org/ns#"
   xmlns:rdf="http://www.w3.org/1999/02/22-rdf-syntax-ns#"
   xmlns:svg="http://www.w3.org/2000/svg"
   xmlns="http://www.w3.org/2000/svg"
   xmlns:sodipodi="http://sodipodi.sourceforge.net/DTD/sodipodi-0.dtd"
   xmlns:inkscape="http://www.inkscape.org/namespaces/inkscape"
   sodipodi:docname="bg.svg"
   inkscape:version="0.92.4 5da689c313, 2019-01-14"
   id="svg8"
   version="1.1"
   viewBox="0 0 101.33541 76.199998"
   height="288"
   width="383">
  <defs
     id="defs2" />
  <sodipodi:namedview
     id="base"
     pagecolor="#ffffff"
     bordercolor="#666666"
     borderopacity="1.0"
     inkscape:pageopacity="0.0"
     inkscape:pageshadow="2"
     inkscape:zoom="2"
     inkscape:cx="249.65528"
     inkscape:cy="150.50606"
     inkscape:document-units="mm"
     inkscape:current-layer="layer1"
     showgrid="false"
     inkscape:snap-global="false"
     inkscape:window-width="1770"
     inkscape:window-height="1063"
     inkscape:window-x="150"
     inkscape:window-y="0"
     inkscape:window-maximized="1"
     fit-margin-top="32"
     fit-margin-left="32"
     fit-margin-right="32"
     fit-margin-bottom="32"
     units="px"
     inkscape:snap-page="true" />
  <metadata
     id="metadata5">
    <rdf:RDF>
      <cc:Work
         rdf:about="">
        <dc:format>image/svg+xml</dc:format>
        <dc:type
           rdf:resource="http://purl.org/dc/dcmitype/StillImage" />
        <dc:title></dc:title>
      </cc:Work>
    </rdf:RDF>
  </metadata>
  <g
     inkscape:label="Layer 1"
     inkscape:groupmode="layer"
     id="layer1"
     transform="translate(-32.452469,-149.49697)">
    <path
       sodipodi:nodetypes="ccccc"
       style="opacity:1;fill:#383d38;fill-opacity:1;stroke:none;stroke-width:1.6621846;stroke-linecap:round;stroke-linejoin:round;stroke-miterlimit:4;stroke-dasharray:none;stroke-dashoffset:36.56099701;stroke-opacity:1"
       d="m 32,147.05516 h 104 v 79 H 32 Z"
       id="rect928"
       inkscape:connector-curvature="0" />
    <g
       id="g887"
       transform="translate(-0.75595238,11.339286)">
      <path
         sodipodi:nodetypes="sccccccsszccz"
         inkscape:connector-curvature="0"
         id="path815"
         transform="scale(0.26458333)"
         d="m 334.04688,554.7207 c -19.94466,-0.13711 -41.14356,5.34033 -53.22461,18.27539 17.6653,29.39913 44.58186,39.84498 64.65039,41.41602 20.06852,1.571 27.82138,-4.7364 35.35546,-9.08984 9.04929,2.21253 14.37424,13.12116 15.65626,24.74804 2.79722,-2.01014 3.2544,-0.38949 6.5664,-5.05078 -4.2641,-16.27805 -10.69692,-20.55283 -15.15234,-30.81055 0,0 7.06447,-11.05654 -11.11133,-27.27343 -8.51991,-7.60167 -25.14201,-12.09386 -42.74023,-12.21485 z m 21.52736,8.67931 c 20.47311,5.72237 25.34244,22.22423 23.73826,29.2953 -25.85168,-13.97035 -54.77346,-21.35917 -85.86365,-22.22343 24.34678,-10.39203 41.65228,-12.79425 62.12539,-7.07187 z"
         style="opacity:1;fill:#455048;fill-opacity:1;stroke:none;stroke-width:1.51181102;stroke-linecap:round;stroke-linejoin:round;stroke-miterlimit:4;stroke-dasharray:none;stroke-dashoffset:36.56099701;stroke-opacity:1" />
      <path
         sodipodi:nodetypes="ccccsccccccc"
         inkscape:connector-curvature="0"
         id="path817"
         transform="scale(0.26458333)"
         d="m 472.75195,713.4082 c -2.79938,3.03047 -7.63064,7.14351 -11.11133,11.11133 -4.99589,-2.59816 -11.39494,-5.6251 -20.70898,0.50586 -9.31408,6.13096 -19.90141,29.48363 -12.62695,42.93164 14.85059,4.86172 37.5454,-4.09123 43.4375,-14.64844 5.89209,-10.5572 -3.78151,-21.71081 -5.05078,-26.26367 1.76118,-5.56301 6.06014,-8.0169 9.5957,-9.0918 -2.52541,-2.59018 -2.25102,-2.01951 -3.53516,-4.54492 z m -30.30546,14.14258 c 6.5091,-1.54096 14.82735,-2.55405 18.68828,2.52539 -3.59576,1.2258 -6.33469,4.16527 -8.58594,8.08008 -3.36745,-3.53516 -6.73489,-7.07031 -10.10234,-10.60547 z"
         style="opacity:1;fill:#455048;fill-opacity:1;stroke:none;stroke-width:1.51181102;stroke-linecap:round;stroke-linejoin:round;stroke-miterlimit:4;stroke-dasharray:none;stroke-dashoffset:36.56099701;stroke-opacity:1" />
      <path
         sodipodi:nodetypes="cccscscccccc"
         inkscape:connector-curvature="0"
         id="path822"
         d="m 76.592296,190.12246 -1.336352,1.06867 c 0.53454,0.66817 1.06898,1.33636 1.60352,2.00453 0,0 -1.937991,3.53846 -0.267168,6.68176 1.670825,3.14331 12.962517,6.01359 12.962517,6.01359 0,0 -0.59286,-10.6437 -3.207039,-12.96252 -2.614178,-2.31881 -8.686292,-0.8015 -8.686292,-0.8015 -0.356359,-1.07217 -0.84646,-1.18662 -1.069186,-2.00453 z m 1.60352,9.62164 c 3.991306,1.43974 6.178831,1.52879 7.082772,1.06918 0.411871,1.36994 1.256801,2.30681 2.004528,3.34088 -3.431598,-1.06752 -6.365721,-2.63252 -9.0873,-4.41006 z"
         style="opacity:1;fill:#455048;fill-opacity:1;stroke:none;stroke-width:0.40000001;stroke-linecap:round;stroke-linejoin:round;stroke-miterlimit:4;stroke-dasharray:none;stroke-dashoffset:36.56099701;stroke-opacity:1" />
      <path
         inkscape:connector-curvature="0"
         id="path832"
         d="m 44.282937,170.06249 c -0.07071,-0.002 -0.142285,-0.001 -0.214458,0.004 -0.524902,0.0388 -1.084141,0.29352 -1.616438,0.89246 -1.703382,1.9166 -0.182369,2.93328 0.55707,3.35586 -0.649759,1.34632 -0.954794,1.86917 -0.684194,4.86431 0.2706,2.99514 2.15624,4.76243 4.441071,5.98103 2.28483,1.2186 6.862415,1.46898 9.220625,0.40101 2.358211,-1.06796 4.401741,-3.3328 4.794541,-5.87975 0.39279,-2.54695 -0.123446,-4.24332 -1.340487,-5.87664 0.401061,-0.57611 1.163129,-1.46257 -0.03772,-2.65359 -1.534949,-1.85919 -2.726373,-0.61552 -3.476789,0.0631 -1.342679,-0.92277 -3.223115,-1.06949 -5.009515,-0.70952 -2.17242,-0.35576 -3.515032,0.29259 -4.543391,1.0604 -0.15226,-0.58733 -1.029708,-1.46565 -2.090311,-1.50275 z m 8.306985,3.6158 c 0.526835,0.0195 0.974685,0.29871 0.937411,0.30799 l -0.06718,0.46767 c 0,0 -0.496691,-0.49476 -0.801499,0 -0.304811,0.49476 0.401007,0.73535 0.401007,0.73535 l -0.468188,0.20051 -0.609264,-0.26355 c 0,0 0.555226,-0.18935 0.205156,-0.66818 -0.350071,-0.47876 -0.932244,-0.004 -0.932244,-0.004 l -0.267168,-0.26717 c 0,0 0.754126,-0.4242 1.372526,-0.4992 0.0773,-0.009 0.154183,-0.0121 0.229444,-0.009 z m -0.211357,2.66237 2.071192,0.66817 0.06666,0.60152 -0.200504,2.33835 -0.600998,-2.33835 -1.536856,-0.53485 -1.536856,0.60151 -0.467673,2.13785 -0.467672,-1.87068 -0.467672,-0.20051 1.002006,-0.8015 z m 1.069186,6.81508 0.734838,2.00453 -1.73736,0.60152 -1.60352,-0.40101 -0.935345,-0.40101 -0.200504,-1.20251 0.734838,0.80202 0.868683,-1.20303 -0.06667,1.40353 1.135849,0.26717 0.868682,-0.26717 z"
         style="opacity:1;fill:#455048;fill-opacity:1;stroke:none;stroke-width:0.40000001;stroke-linecap:round;stroke-linejoin:round;stroke-miterlimit:4;stroke-dasharray:none;stroke-dashoffset:36.56099701;stroke-opacity:1" />
    </g>
  </g>
</svg>
