<?xml version="1.0" encoding="UTF-8" standalone="no"?>
<svg
   xmlns:dc="http://purl.org/dc/elements/1.1/"
   xmlns:cc="http://creativecommons.org/ns#"
   xmlns:rdf="http://www.w3.org/1999/02/22-rdf-syntax-ns#"
   xmlns:svg="http://www.w3.org/2000/svg"
   xmlns="http://www.w3.org/2000/svg"
   xmlns:sodipodi="http://sodipodi.sourceforge.net/DTD/sodipodi-0.dtd"
   xmlns:inkscape="http://www.inkscape.org/namespaces/inkscape"
   version="1.1"
   width="24"
   height="24"
   viewBox="0 0 24 24"
   id="svg24"
   sodipodi:docname="cog.svg"
   inkscape:version="1.0.2 (e86c870879, 2021-01-15)">
  <metadata
     id="metadata30">
    <rdf:RDF>
      <cc:Work
         rdf:about="">
        <dc:format>image/svg+xml</dc:format>
        <dc:type
           rdf:resource="http://purl.org/dc/dcmitype/StillImage" />
      </cc:Work>
    </rdf:RDF>
  </metadata>
  <defs
     id="defs28" />
  <sodipodi:namedview
     pagecolor="#ffffff"
     bordercolor="#666666"
     borderopacity="1"
     objecttolerance="10"
     gridtolerance="10"
     guidetolerance="10"
     inkscape:pageopacity="0"
     inkscape:pageshadow="2"
     inkscape:window-width="1872"
     inkscape:window-height="977"
     id="namedview26"
     showgrid="false"
     inkscape:zoom="36"
     inkscape:cx="5.1944444"
     inkscape:cy="12"
     inkscape:window-x="24"
     inkscape:window-y="79"
     inkscape:window-maximized="0"
     inkscape:current-layer="svg24" />
  <path
     d="M 11.99989,15.325 A 3.325,3.325 0 0 1 8.6748896,12 3.325,3.325 0 0 1 11.99989,8.675 a 3.325,3.325 0 0 1 3.325,3.325 3.325,3.325 0 0 1 -3.325,3.325 m 7.0585,-2.4035 c 0.038,-0.304 0.0665,-0.608 0.0665,-0.9215 0,-0.3135 -0.0285,-0.627 -0.0665,-0.95 l 2.0045,-1.5485 c 0.1805,-0.1425 0.228,-0.399 0.114,-0.608 l -1.9,-3.287 c -0.114,-0.209 -0.3705,-0.2945 -0.5795,-0.209 l -2.3655,0.95 c -0.494,-0.3705 -1.007,-0.6935 -1.6055,-0.931 L 14.37489,2.899 C 14.33689,2.671 14.13739,2.5 13.89989,2.5 h -3.8 C 9.8623896,2.5 9.6628896,2.671 9.6248896,2.899 l -0.3515,2.5175 c -0.5985,0.2375 -1.1115,0.5605 -1.6055,0.931 l -2.3655,-0.95 c -0.209,-0.0855 -0.4655,0 -0.5795,0.209 l -1.9,3.287 c -0.1235,0.209 -0.0665,0.4655 0.114,0.608 l 2.0045,1.5485 c -0.038,0.323 -0.0665,0.6365 -0.0665,0.95 0,0.3135 0.0285,0.6175 0.0665,0.9215 l -2.0045,1.577 c -0.1805,0.1425 -0.2375,0.399 -0.114,0.608 l 1.9,3.287 c 0.114,0.209 0.3705,0.285 0.5795,0.209 l 2.3655,-0.9595 c 0.494,0.38 1.007,0.703 1.6055,0.9405 l 0.3515,2.5175 c 0.038,0.228 0.2375,0.399 0.4750004,0.399 h 3.8 c 0.2375,0 0.437,-0.171 0.475,-0.399 l 0.3515,-2.5175 c 0.5985,-0.247 1.1115,-0.5605 1.6055,-0.9405 l 2.3655,0.9595 c 0.209,0.076 0.4655,0 0.5795,-0.209 l 1.9,-3.287 c 0.114,-0.209 0.0665,-0.4655 -0.114,-0.608 z"
     id="path22"
     style="stroke-width:0.95" />
</svg>
